<svg width="24" height="22" viewBox="0 0 24 22" fill="none" xmlns="http://www.w3.org/2000/svg">
<g opacity="0.32">
<path fill-rule="evenodd" clip-rule="evenodd" d="M23.2751 8.86121L13.0881 0.445851C12.4457 -0.0860357 11.5159 -0.0860357 10.8735 0.445851L0.686516 8.86121C0.256137 9.19467 0.00298481 9.70751 0 10.252C0.00140789 10.6558 0.1387 11.0474 0.389764 11.3637C0.67634 11.7281 1.09802 11.9613 1.55906 12.0103C2.02559 12.0587 2.49227 11.9202 2.85679 11.625L3.10039 11.4212V19.1811C3.10039 20.3637 4.25197 21.3248 5.66929 21.3248H8.72096C9.53064 21.3248 10.187 20.6684 10.187 19.8587V16.1427C10.187 15.99 10.2477 15.8435 10.3557 15.7356C10.4636 15.6276 10.6101 15.5669 10.7628 15.5669H13.1501C13.4705 15.5669 13.7303 15.8267 13.7303 16.1471V19.8632C13.7303 20.6704 14.3847 21.3248 15.1919 21.3248H18.248C19.6654 21.3248 20.8169 20.3637 20.8169 19.1811V11.3991L21.065 11.6028C21.3756 11.8583 21.7656 11.9977 22.1678 11.997H22.3583C22.8187 11.9461 23.2397 11.7133 23.5276 11.3504C24.1438 10.5929 24.0309 9.47957 23.2751 8.86121ZM19.9311 19.1811C19.9311 19.8632 19.1604 20.439 18.248 20.439H15.1919C14.8739 20.439 14.6161 20.1812 14.6161 19.8632V16.1471C14.6161 15.3375 13.9598 14.6811 13.1501 14.6811H10.7628C9.95557 14.6811 9.30118 15.3355 9.30118 16.1427V19.8587C9.30118 20.1792 9.04141 20.439 8.72096 20.439H5.66929C4.75689 20.439 3.98622 19.8632 3.98622 19.1811V11.2086C3.99987 10.8573 4.17265 10.5313 4.45571 10.3228L11.4094 4.74211C11.7365 4.50283 12.1808 4.50283 12.5079 4.74211L19.4616 10.3228C19.7342 10.5371 19.8966 10.862 19.9045 11.2086L19.9311 19.1811ZM22.2591 11.1065C22.4866 11.0823 22.6948 10.9675 22.8366 10.7879C23.1295 10.4121 23.0727 9.87209 22.7082 9.56544L12.499 1.15008C12.1864 0.888216 11.731 0.888216 11.4183 1.15008L1.20915 9.56544C1.00385 9.73419 0.885166 9.9862 0.885827 10.252C0.892496 10.4488 0.962383 10.6383 1.08514 10.7923C1.22655 10.9685 1.43197 11.0816 1.6565 11.1068C1.88577 11.1286 2.11454 11.0603 2.29429 10.9163L10.8514 3.86957C11.1643 3.61441 11.5549 3.47377 11.9587 3.47095C12.3615 3.47153 12.7514 3.61249 13.0615 3.86957L21.6275 10.9163C21.8038 11.0621 22.0315 11.1306 22.2591 11.1065Z" fill="black"/>
</g>
</svg>
