<svg width="23" height="24" viewBox="0 0 23 24" fill="none" xmlns="http://www.w3.org/2000/svg">
<g opacity="0.32">
<path fill-rule="evenodd" clip-rule="evenodd" d="M5.45455 10.9091H17.4545C20.4665 10.9091 22.9091 8.46709 22.9091 5.45455C22.9091 2.442 20.4665 0 17.4545 0H5.45455C2.442 0 0 2.442 0 5.45455C0 8.46709 2.442 10.9091 5.45455 10.9091ZM5.45455 1.09091H17.4545C19.8644 1.09091 21.8182 3.04473 21.8182 5.45455C21.8182 7.86436 19.8644 9.81818 17.4545 9.81818H5.45455C3.04473 9.81818 1.09091 7.86436 1.09091 5.45455C1.09091 3.04473 3.04473 1.09091 5.45455 1.09091ZM5.45455 8.72727C3.64745 8.72727 2.18182 7.26218 2.18182 5.45455C2.18182 3.64745 3.64745 2.18182 5.45455 2.18182C7.26164 2.18182 8.72727 3.64745 8.72727 5.45455C8.72727 7.26218 7.26164 8.72727 5.45455 8.72727ZM3.27273 5.45455C3.27273 4.24964 4.24964 3.27273 5.45455 3.27273C6.65945 3.27273 7.63636 4.24964 7.63636 5.45455C7.63636 6.65945 6.65945 7.63636 5.45455 7.63636C4.24964 7.63636 3.27273 6.65945 3.27273 5.45455ZM5.45455 13.0909H17.4545C20.4665 13.0909 22.9091 15.5335 22.9091 18.5455C22.9091 21.5575 20.4665 24 17.4545 24H5.45455C2.442 24 0 21.5575 0 18.5455C0 15.5335 2.442 13.0909 5.45455 13.0909ZM17.4545 22.9091H5.45455C3.04473 22.9091 1.09091 20.9553 1.09091 18.5455C1.09091 16.1356 3.04473 14.1818 5.45455 14.1818H17.4545C19.8644 14.1818 21.8182 16.1356 21.8182 18.5455C21.8182 20.9553 19.8644 22.9091 17.4545 22.9091ZM17.4545 15.2727C19.2616 15.2727 20.7273 16.7384 20.7273 18.5455C20.7273 20.3525 19.2616 21.8182 17.4545 21.8182C15.6475 21.8182 14.1818 20.3525 14.1818 18.5455C14.1818 16.7384 15.6475 15.2727 17.4545 15.2727ZM19.6364 18.5455C19.6364 19.7504 18.6595 20.7273 17.4545 20.7273C16.2496 20.7273 15.2727 19.7504 15.2727 18.5455C15.2727 17.3405 16.2496 16.3636 17.4545 16.3636C18.6595 16.3636 19.6364 17.3405 19.6364 18.5455Z" fill="black"/>
</g>
</svg>
